<mxfile host="Electron" agent="Mozilla/5.0 (Windows NT 10.0; Win64; x64) AppleWebKit/537.36 (KHTML, like Gecko) draw.io/22.0.2 Chrome/114.0.5735.289 Electron/25.8.4 Safari/537.36" modified="2024-08-14T13:09:33.576Z" version="22.0.2" etag="YEjGhBzPK2c1Tr_8EUaP" type="device">
  <diagram name="v1.2" id="x6hly9faiPCFQcvoZUI5">
    <mxGraphModel dx="864" dy="1308" grid="1" gridSize="10" guides="1" tooltips="1" connect="1" arrows="1" fold="1" page="0" pageScale="1" pageWidth="827" pageHeight="1169" math="0" shadow="0">
      <root>
        <mxCell id="Rc5RAhMzhkkas9AK0KT4-0" />
        <mxCell id="Rc5RAhMzhkkas9AK0KT4-1" parent="Rc5RAhMzhkkas9AK0KT4-0" />
        <mxCell id="Rc5RAhMzhkkas9AK0KT4-2" value="" style="rounded=0;whiteSpace=wrap;html=1;" parent="Rc5RAhMzhkkas9AK0KT4-1" vertex="1">
          <mxGeometry x="230" y="-80" width="410" height="200" as="geometry" />
        </mxCell>
        <mxCell id="Rc5RAhMzhkkas9AK0KT4-3" value="" style="rounded=0;whiteSpace=wrap;html=1;" parent="Rc5RAhMzhkkas9AK0KT4-1" vertex="1">
          <mxGeometry x="230" y="-100" width="120" height="20" as="geometry" />
        </mxCell>
        <mxCell id="Rc5RAhMzhkkas9AK0KT4-4" value="" style="rounded=0;whiteSpace=wrap;html=1;" parent="Rc5RAhMzhkkas9AK0KT4-1" vertex="1">
          <mxGeometry x="720" y="-80" width="370" height="200" as="geometry" />
        </mxCell>
        <mxCell id="Rc5RAhMzhkkas9AK0KT4-5" value="" style="rounded=0;whiteSpace=wrap;html=1;" parent="Rc5RAhMzhkkas9AK0KT4-1" vertex="1">
          <mxGeometry x="720" y="-100" width="140" height="20" as="geometry" />
        </mxCell>
        <mxCell id="Rc5RAhMzhkkas9AK0KT4-6" value="Package Persistencia" style="text;html=1;strokeColor=none;fillColor=none;align=center;verticalAlign=middle;whiteSpace=wrap;rounded=0;fontColor=#3333FF;" parent="Rc5RAhMzhkkas9AK0KT4-1" vertex="1">
          <mxGeometry x="725" y="-105" width="130" height="30" as="geometry" />
        </mxCell>
        <mxCell id="Rc5RAhMzhkkas9AK0KT4-7" value="" style="rounded=0;whiteSpace=wrap;html=1;" parent="Rc5RAhMzhkkas9AK0KT4-1" vertex="1">
          <mxGeometry x="320" y="-552.5" width="465" height="420" as="geometry" />
        </mxCell>
        <mxCell id="Rc5RAhMzhkkas9AK0KT4-8" value="" style="rounded=0;whiteSpace=wrap;html=1;" parent="Rc5RAhMzhkkas9AK0KT4-1" vertex="1">
          <mxGeometry x="320" y="-572.5" width="165" height="20" as="geometry" />
        </mxCell>
        <mxCell id="Rc5RAhMzhkkas9AK0KT4-9" value="Package UI" style="text;html=1;strokeColor=none;fillColor=none;align=center;verticalAlign=middle;whiteSpace=wrap;rounded=0;fontColor=#3333FF;" parent="Rc5RAhMzhkkas9AK0KT4-1" vertex="1">
          <mxGeometry x="250" y="-105" width="80" height="30" as="geometry" />
        </mxCell>
        <mxCell id="Rc5RAhMzhkkas9AK0KT4-10" value="&amp;lt;&amp;lt;persistencia&amp;gt;&amp;gt;&lt;br&gt;SGBDComponent" style="shape=module;align=left;spacingLeft=20;align=center;verticalAlign=top;whiteSpace=wrap;html=1;" parent="Rc5RAhMzhkkas9AK0KT4-1" vertex="1">
          <mxGeometry x="810" y="55" width="190" height="50" as="geometry" />
        </mxCell>
        <mxCell id="Rc5RAhMzhkkas9AK0KT4-11" value="&amp;lt;&amp;lt;persistencia&amp;gt;&amp;gt;&lt;br&gt;GeneradorPersistenciaComponent" style="shape=module;align=left;spacingLeft=20;align=center;verticalAlign=top;whiteSpace=wrap;html=1;" parent="Rc5RAhMzhkkas9AK0KT4-1" vertex="1">
          <mxGeometry x="785" y="-60" width="240" height="50" as="geometry" />
        </mxCell>
        <mxCell id="Rc5RAhMzhkkas9AK0KT4-14" value="" style="ellipse;whiteSpace=wrap;html=1;align=center;aspect=fixed;fillColor=none;strokeColor=none;resizable=0;perimeter=centerPerimeter;rotatable=0;allowArrows=0;points=[];outlineConnect=1;flipV=1;" parent="Rc5RAhMzhkkas9AK0KT4-1" vertex="1">
          <mxGeometry x="855" width="10" height="10" as="geometry" />
        </mxCell>
        <mxCell id="Rc5RAhMzhkkas9AK0KT4-15" value="&amp;lt;&amp;lt;ui&amp;gt;&amp;gt;&lt;br&gt;AuthComponent" style="shape=module;align=left;spacingLeft=20;align=center;verticalAlign=top;whiteSpace=wrap;html=1;" parent="Rc5RAhMzhkkas9AK0KT4-1" vertex="1">
          <mxGeometry x="240" y="-5" width="130" height="50" as="geometry" />
        </mxCell>
        <mxCell id="Rc5RAhMzhkkas9AK0KT4-16" value="&amp;lt;&amp;lt;ui&amp;gt;&amp;gt;&lt;br&gt;GestiónProfesoresComponent" style="shape=module;align=left;spacingLeft=20;align=center;verticalAlign=top;whiteSpace=wrap;html=1;" parent="Rc5RAhMzhkkas9AK0KT4-1" vertex="1">
          <mxGeometry x="430" y="-60" width="190" height="50" as="geometry" />
        </mxCell>
        <mxCell id="Rc5RAhMzhkkas9AK0KT4-17" value="&amp;lt;&amp;lt;ui&amp;gt;&amp;gt;&lt;br&gt;GestiónAdministradoresComponent" style="shape=module;align=left;spacingLeft=20;align=center;verticalAlign=top;whiteSpace=wrap;html=1;" parent="Rc5RAhMzhkkas9AK0KT4-1" vertex="1">
          <mxGeometry x="400" y="45" width="220" height="50" as="geometry" />
        </mxCell>
        <mxCell id="Rc5RAhMzhkkas9AK0KT4-18" value="Package Lógica de Negocio" style="text;html=1;strokeColor=none;fillColor=none;align=center;verticalAlign=middle;whiteSpace=wrap;rounded=0;fontColor=#3333FF;" parent="Rc5RAhMzhkkas9AK0KT4-1" vertex="1">
          <mxGeometry x="320" y="-577.5" width="155" height="30" as="geometry" />
        </mxCell>
        <mxCell id="Rc5RAhMzhkkas9AK0KT4-21" value="" style="ellipse;whiteSpace=wrap;html=1;align=center;aspect=fixed;fillColor=none;strokeColor=none;resizable=0;perimeter=centerPerimeter;rotatable=0;allowArrows=0;points=[];outlineConnect=1;" parent="Rc5RAhMzhkkas9AK0KT4-1" vertex="1">
          <mxGeometry x="380" y="-30" width="10" height="10" as="geometry" />
        </mxCell>
        <mxCell id="Rc5RAhMzhkkas9AK0KT4-24" value="" style="ellipse;whiteSpace=wrap;html=1;align=center;aspect=fixed;fillColor=none;strokeColor=none;resizable=0;perimeter=centerPerimeter;rotatable=0;allowArrows=0;points=[];outlineConnect=1;" parent="Rc5RAhMzhkkas9AK0KT4-1" vertex="1">
          <mxGeometry x="445" y="65" width="10" height="10" as="geometry" />
        </mxCell>
        <mxCell id="Rc5RAhMzhkkas9AK0KT4-25" value="" style="rounded=0;orthogonalLoop=1;jettySize=auto;html=1;endArrow=halfCircle;endFill=0;endSize=6;strokeWidth=1;sketch=0;exitX=0;exitY=0;exitDx=0;exitDy=15;exitPerimeter=0;" parent="Rc5RAhMzhkkas9AK0KT4-1" source="Rc5RAhMzhkkas9AK0KT4-11" target="Rc5RAhMzhkkas9AK0KT4-27" edge="1">
          <mxGeometry relative="1" as="geometry">
            <mxPoint x="700" y="-45" as="sourcePoint" />
          </mxGeometry>
        </mxCell>
        <mxCell id="Rc5RAhMzhkkas9AK0KT4-26" value="" style="rounded=0;orthogonalLoop=1;jettySize=auto;html=1;endArrow=oval;endFill=0;sketch=0;sourcePerimeterSpacing=0;targetPerimeterSpacing=0;endSize=10;exitX=1.003;exitY=0.302;exitDx=0;exitDy=0;exitPerimeter=0;" parent="Rc5RAhMzhkkas9AK0KT4-1" source="Rc5RAhMzhkkas9AK0KT4-16" target="Rc5RAhMzhkkas9AK0KT4-27" edge="1">
          <mxGeometry relative="1" as="geometry">
            <mxPoint x="660" y="-45" as="sourcePoint" />
          </mxGeometry>
        </mxCell>
        <mxCell id="Rc5RAhMzhkkas9AK0KT4-27" value="" style="ellipse;whiteSpace=wrap;html=1;align=center;aspect=fixed;fillColor=none;strokeColor=none;resizable=0;perimeter=centerPerimeter;rotatable=0;allowArrows=0;points=[];outlineConnect=1;" parent="Rc5RAhMzhkkas9AK0KT4-1" vertex="1">
          <mxGeometry x="675" y="-50" width="10" height="10" as="geometry" />
        </mxCell>
        <mxCell id="Rc5RAhMzhkkas9AK0KT4-28" value="" style="rounded=0;orthogonalLoop=1;jettySize=auto;html=1;endArrow=halfCircle;endFill=0;endSize=6;strokeWidth=1;sketch=0;exitX=0;exitY=0;exitDx=0;exitDy=35;exitPerimeter=0;" parent="Rc5RAhMzhkkas9AK0KT4-1" source="Rc5RAhMzhkkas9AK0KT4-11" target="Rc5RAhMzhkkas9AK0KT4-30" edge="1">
          <mxGeometry relative="1" as="geometry">
            <mxPoint x="780" y="-30" as="sourcePoint" />
          </mxGeometry>
        </mxCell>
        <mxCell id="Rc5RAhMzhkkas9AK0KT4-29" value="" style="rounded=0;orthogonalLoop=1;jettySize=auto;html=1;endArrow=oval;endFill=0;sketch=0;sourcePerimeterSpacing=0;targetPerimeterSpacing=0;endSize=10;exitX=1.005;exitY=0.293;exitDx=0;exitDy=0;exitPerimeter=0;" parent="Rc5RAhMzhkkas9AK0KT4-1" source="Rc5RAhMzhkkas9AK0KT4-17" target="Rc5RAhMzhkkas9AK0KT4-30" edge="1">
          <mxGeometry relative="1" as="geometry">
            <mxPoint x="620" y="62.5" as="sourcePoint" />
          </mxGeometry>
        </mxCell>
        <mxCell id="Rc5RAhMzhkkas9AK0KT4-30" value="" style="ellipse;whiteSpace=wrap;html=1;align=center;aspect=fixed;fillColor=none;strokeColor=none;resizable=0;perimeter=centerPerimeter;rotatable=0;allowArrows=0;points=[];outlineConnect=1;" parent="Rc5RAhMzhkkas9AK0KT4-1" vertex="1">
          <mxGeometry x="675" y="55" width="10" height="10" as="geometry" />
        </mxCell>
        <mxCell id="Rc5RAhMzhkkas9AK0KT4-31" value="El paquete Persistencia, junto con el componente Generador de Persistencia hace referencia a Alta, Baja y Modificación de las clases... como también otras operaciones que se hacen a partir de la UI de profesores y administradores y la Lógica de Negocio en la gestión de clases ." style="text;html=1;strokeColor=#6c8ebf;fillColor=#dae8fc;align=center;verticalAlign=middle;whiteSpace=wrap;rounded=0;" parent="Rc5RAhMzhkkas9AK0KT4-1" vertex="1">
          <mxGeometry x="1140" y="-80" width="300" height="100" as="geometry" />
        </mxCell>
        <mxCell id="Rc5RAhMzhkkas9AK0KT4-32" value="&amp;lt;&amp;lt;logica de negocio&amp;gt;&amp;gt;&lt;br&gt;ClasesComponent" style="shape=module;align=left;spacingLeft=20;align=center;verticalAlign=top;whiteSpace=wrap;html=1;" parent="Rc5RAhMzhkkas9AK0KT4-1" vertex="1">
          <mxGeometry x="595" y="-420" width="150" height="50" as="geometry" />
        </mxCell>
        <mxCell id="Rc5RAhMzhkkas9AK0KT4-33" value="" style="rounded=0;orthogonalLoop=1;jettySize=auto;html=1;endArrow=halfCircle;endFill=0;endSize=6;strokeWidth=1;sketch=0;exitX=0.51;exitY=0.052;exitDx=0;exitDy=0;exitPerimeter=0;" parent="Rc5RAhMzhkkas9AK0KT4-1" source="Rc5RAhMzhkkas9AK0KT4-11" target="Rc5RAhMzhkkas9AK0KT4-35" edge="1">
          <mxGeometry relative="1" as="geometry">
            <mxPoint x="940" y="-285" as="sourcePoint" />
          </mxGeometry>
        </mxCell>
        <mxCell id="Rc5RAhMzhkkas9AK0KT4-34" value="" style="rounded=0;orthogonalLoop=1;jettySize=auto;html=1;endArrow=oval;endFill=0;sketch=0;sourcePerimeterSpacing=0;targetPerimeterSpacing=0;endSize=10;exitX=1;exitY=0.75;exitDx=0;exitDy=0;" parent="Rc5RAhMzhkkas9AK0KT4-1" source="Rc5RAhMzhkkas9AK0KT4-32" target="Rc5RAhMzhkkas9AK0KT4-35" edge="1">
          <mxGeometry relative="1" as="geometry">
            <mxPoint x="900" y="-285" as="sourcePoint" />
          </mxGeometry>
        </mxCell>
        <mxCell id="Rc5RAhMzhkkas9AK0KT4-35" value="" style="ellipse;whiteSpace=wrap;html=1;align=center;aspect=fixed;fillColor=none;strokeColor=none;resizable=0;perimeter=centerPerimeter;rotatable=0;allowArrows=0;points=[];outlineConnect=1;" parent="Rc5RAhMzhkkas9AK0KT4-1" vertex="1">
          <mxGeometry x="915" y="-290" width="10" height="10" as="geometry" />
        </mxCell>
        <mxCell id="Rc5RAhMzhkkas9AK0KT4-36" value="&amp;lt;&amp;lt;logica de negocio&amp;gt;&amp;gt;&lt;br&gt;UsuariosComponent" style="shape=module;align=left;spacingLeft=20;align=center;verticalAlign=top;whiteSpace=wrap;html=1;" parent="Rc5RAhMzhkkas9AK0KT4-1" vertex="1">
          <mxGeometry x="595" y="-300" width="150" height="50" as="geometry" />
        </mxCell>
        <mxCell id="Rc5RAhMzhkkas9AK0KT4-37" value="" style="rounded=0;orthogonalLoop=1;jettySize=auto;html=1;endArrow=oval;endFill=0;sketch=0;sourcePerimeterSpacing=0;targetPerimeterSpacing=0;endSize=10;exitX=1;exitY=0.25;exitDx=0;exitDy=0;entryX=0.09;entryY=0.2;entryDx=0;entryDy=0;entryPerimeter=0;" parent="Rc5RAhMzhkkas9AK0KT4-1" source="Rc5RAhMzhkkas9AK0KT4-36" target="Rc5RAhMzhkkas9AK0KT4-35" edge="1">
          <mxGeometry relative="1" as="geometry">
            <mxPoint x="825" y="-280" as="sourcePoint" />
            <mxPoint x="920" y="-213" as="targetPoint" />
          </mxGeometry>
        </mxCell>
        <mxCell id="Rc5RAhMzhkkas9AK0KT4-38" value="&amp;lt;&amp;lt;logica de negocio&amp;gt;&amp;gt;&lt;br&gt;RolesComponent" style="shape=module;align=left;spacingLeft=20;align=center;verticalAlign=top;whiteSpace=wrap;html=1;" parent="Rc5RAhMzhkkas9AK0KT4-1" vertex="1">
          <mxGeometry x="595" y="-190" width="150" height="50" as="geometry" />
        </mxCell>
        <mxCell id="Rc5RAhMzhkkas9AK0KT4-39" value="&amp;lt;&amp;lt;logica de negocio&amp;gt;&amp;gt;&lt;br&gt;MateriasComponent" style="shape=module;align=left;spacingLeft=20;align=center;verticalAlign=top;whiteSpace=wrap;html=1;" parent="Rc5RAhMzhkkas9AK0KT4-1" vertex="1">
          <mxGeometry x="595" y="-530" width="150" height="50" as="geometry" />
        </mxCell>
        <mxCell id="Rc5RAhMzhkkas9AK0KT4-40" value="" style="endArrow=none;html=1;rounded=0;exitX=1;exitY=0.25;exitDx=0;exitDy=0;" parent="Rc5RAhMzhkkas9AK0KT4-1" source="Rc5RAhMzhkkas9AK0KT4-38" edge="1">
          <mxGeometry width="50" height="50" relative="1" as="geometry">
            <mxPoint x="710" y="-320" as="sourcePoint" />
            <mxPoint x="920" y="-290" as="targetPoint" />
          </mxGeometry>
        </mxCell>
        <mxCell id="Rc5RAhMzhkkas9AK0KT4-41" value="" style="endArrow=none;html=1;rounded=0;exitX=1;exitY=0.25;exitDx=0;exitDy=0;" parent="Rc5RAhMzhkkas9AK0KT4-1" source="Rc5RAhMzhkkas9AK0KT4-39" edge="1">
          <mxGeometry width="50" height="50" relative="1" as="geometry">
            <mxPoint x="710" y="-320" as="sourcePoint" />
            <mxPoint x="920" y="-290" as="targetPoint" />
          </mxGeometry>
        </mxCell>
        <mxCell id="Rc5RAhMzhkkas9AK0KT4-42" value="" style="rounded=0;orthogonalLoop=1;jettySize=auto;html=1;endArrow=halfCircle;endFill=0;endSize=6;strokeWidth=1;sketch=0;exitX=0;exitY=0;exitDx=0;exitDy=15;exitPerimeter=0;" parent="Rc5RAhMzhkkas9AK0KT4-1" source="Rc5RAhMzhkkas9AK0KT4-36" edge="1">
          <mxGeometry relative="1" as="geometry">
            <mxPoint x="610" y="-145" as="sourcePoint" />
            <mxPoint x="200" y="-200" as="targetPoint" />
          </mxGeometry>
        </mxCell>
        <mxCell id="Rc5RAhMzhkkas9AK0KT4-43" value="" style="rounded=0;orthogonalLoop=1;jettySize=auto;html=1;endArrow=oval;endFill=0;sketch=0;sourcePerimeterSpacing=0;targetPerimeterSpacing=0;endSize=10;exitX=0;exitY=0;exitDx=0;exitDy=15;exitPerimeter=0;" parent="Rc5RAhMzhkkas9AK0KT4-1" source="Rc5RAhMzhkkas9AK0KT4-15" edge="1">
          <mxGeometry relative="1" as="geometry">
            <mxPoint x="570" y="-145" as="sourcePoint" />
            <mxPoint x="200" y="-200" as="targetPoint" />
            <Array as="points">
              <mxPoint x="200" y="10" />
            </Array>
          </mxGeometry>
        </mxCell>
        <mxCell id="Rc5RAhMzhkkas9AK0KT4-44" value="" style="ellipse;whiteSpace=wrap;html=1;align=center;aspect=fixed;fillColor=none;strokeColor=none;resizable=0;perimeter=centerPerimeter;rotatable=0;allowArrows=0;points=[];outlineConnect=1;" parent="Rc5RAhMzhkkas9AK0KT4-1" vertex="1">
          <mxGeometry x="585" y="-150" width="10" height="10" as="geometry" />
        </mxCell>
        <mxCell id="Rc5RAhMzhkkas9AK0KT4-45" value="ClasesComponent&lt;br&gt;UsuariosComponent&lt;br&gt;RolesComponent&lt;br&gt;MateriasComponent&lt;br&gt;PersonasComponent&lt;br&gt;Estos componentes tienen métodos que recuperan los datos desde la Base de Datos. Se relacionan directamente con el componente de Persistencia" style="text;html=1;strokeColor=#6c8ebf;fillColor=#dae8fc;align=center;verticalAlign=middle;whiteSpace=wrap;rounded=0;" parent="Rc5RAhMzhkkas9AK0KT4-1" vertex="1">
          <mxGeometry x="915" y="-600" width="270" height="145" as="geometry" />
        </mxCell>
        <mxCell id="VOt4LzmUsDtPWpwWiQJo-0" value="" style="endArrow=open;endSize=12;dashed=1;html=1;rounded=0;entryX=1;entryY=0;entryDx=0;entryDy=0;exitX=-0.003;exitY=0.604;exitDx=0;exitDy=0;exitPerimeter=0;" parent="Rc5RAhMzhkkas9AK0KT4-1" source="Rc5RAhMzhkkas9AK0KT4-16" target="Rc5RAhMzhkkas9AK0KT4-15" edge="1">
          <mxGeometry width="160" relative="1" as="geometry">
            <mxPoint x="395" y="-10.399999999999999" as="sourcePoint" />
            <mxPoint x="555" y="-10.399999999999999" as="targetPoint" />
          </mxGeometry>
        </mxCell>
        <mxCell id="VOt4LzmUsDtPWpwWiQJo-1" value="" style="endArrow=open;endSize=12;dashed=1;html=1;rounded=0;entryX=1;entryY=1;entryDx=0;entryDy=0;exitX=0;exitY=0;exitDx=0;exitDy=15;exitPerimeter=0;" parent="Rc5RAhMzhkkas9AK0KT4-1" source="Rc5RAhMzhkkas9AK0KT4-17" target="Rc5RAhMzhkkas9AK0KT4-15" edge="1">
          <mxGeometry width="160" relative="1" as="geometry">
            <mxPoint x="439" y="-20" as="sourcePoint" />
            <mxPoint x="380" y="5" as="targetPoint" />
          </mxGeometry>
        </mxCell>
        <mxCell id="VOt4LzmUsDtPWpwWiQJo-2" value="&amp;lt;&amp;lt;logica de negocio&amp;gt;&amp;gt;&lt;br&gt;Carreras&lt;span style=&quot;background-color: initial;&quot;&gt;Component&lt;/span&gt;" style="shape=module;align=left;spacingLeft=20;align=center;verticalAlign=top;whiteSpace=wrap;html=1;" parent="Rc5RAhMzhkkas9AK0KT4-1" vertex="1">
          <mxGeometry x="360" y="-530" width="150" height="50" as="geometry" />
        </mxCell>
        <mxCell id="VOt4LzmUsDtPWpwWiQJo-3" value="" style="endArrow=open;endSize=12;dashed=1;html=1;rounded=0;entryX=1;entryY=0.5;entryDx=0;entryDy=0;exitX=0.06;exitY=0.46;exitDx=0;exitDy=0;exitPerimeter=0;" parent="Rc5RAhMzhkkas9AK0KT4-1" source="Rc5RAhMzhkkas9AK0KT4-39" target="VOt4LzmUsDtPWpwWiQJo-2" edge="1">
          <mxGeometry width="160" relative="1" as="geometry">
            <mxPoint x="439" y="-20" as="sourcePoint" />
            <mxPoint x="380" y="5" as="targetPoint" />
          </mxGeometry>
        </mxCell>
        <mxCell id="VOt4LzmUsDtPWpwWiQJo-4" value="" style="endArrow=open;endSize=12;dashed=1;html=1;rounded=0;entryX=0.5;entryY=1;entryDx=0;entryDy=0;exitX=0.5;exitY=0;exitDx=0;exitDy=0;" parent="Rc5RAhMzhkkas9AK0KT4-1" source="Rc5RAhMzhkkas9AK0KT4-32" target="Rc5RAhMzhkkas9AK0KT4-39" edge="1">
          <mxGeometry width="160" relative="1" as="geometry">
            <mxPoint x="575" y="-465" as="sourcePoint" />
            <mxPoint x="490" y="-480" as="targetPoint" />
          </mxGeometry>
        </mxCell>
        <mxCell id="VOt4LzmUsDtPWpwWiQJo-5" value="" style="endArrow=open;endSize=12;dashed=1;html=1;rounded=0;entryX=0.5;entryY=0;entryDx=0;entryDy=0;exitX=0.5;exitY=1;exitDx=0;exitDy=0;" parent="Rc5RAhMzhkkas9AK0KT4-1" source="Rc5RAhMzhkkas9AK0KT4-32" target="Rc5RAhMzhkkas9AK0KT4-36" edge="1">
          <mxGeometry width="160" relative="1" as="geometry">
            <mxPoint x="540" y="-380" as="sourcePoint" />
            <mxPoint x="540" y="-440" as="targetPoint" />
          </mxGeometry>
        </mxCell>
        <mxCell id="VOt4LzmUsDtPWpwWiQJo-9" value="" style="rounded=0;orthogonalLoop=1;jettySize=auto;html=1;endArrow=halfCircle;endFill=0;endSize=6;strokeWidth=1;sketch=0;exitX=0.568;exitY=1.046;exitDx=0;exitDy=0;exitPerimeter=0;" parent="Rc5RAhMzhkkas9AK0KT4-1" source="Rc5RAhMzhkkas9AK0KT4-11" target="VOt4LzmUsDtPWpwWiQJo-11" edge="1">
          <mxGeometry relative="1" as="geometry">
            <mxPoint x="885" y="-10" as="sourcePoint" />
          </mxGeometry>
        </mxCell>
        <mxCell id="VOt4LzmUsDtPWpwWiQJo-10" value="" style="rounded=0;orthogonalLoop=1;jettySize=auto;html=1;endArrow=oval;endFill=0;sketch=0;sourcePerimeterSpacing=0;targetPerimeterSpacing=0;endSize=10;exitX=0.573;exitY=-0.007;exitDx=0;exitDy=0;exitPerimeter=0;" parent="Rc5RAhMzhkkas9AK0KT4-1" source="Rc5RAhMzhkkas9AK0KT4-10" target="VOt4LzmUsDtPWpwWiQJo-11" edge="1">
          <mxGeometry relative="1" as="geometry">
            <mxPoint x="885" y="55" as="sourcePoint" />
          </mxGeometry>
        </mxCell>
        <mxCell id="VOt4LzmUsDtPWpwWiQJo-11" value="" style="ellipse;whiteSpace=wrap;html=1;align=center;aspect=fixed;fillColor=none;strokeColor=none;resizable=0;perimeter=centerPerimeter;rotatable=0;allowArrows=0;points=[];outlineConnect=1;" parent="Rc5RAhMzhkkas9AK0KT4-1" vertex="1">
          <mxGeometry x="915" y="20" width="10" height="10" as="geometry" />
        </mxCell>
      </root>
    </mxGraphModel>
  </diagram>
</mxfile>
